<svg id="Layer_1" data-name="Layer 1" xmlns="http://www.w3.org/2000/svg" viewBox="0 0 27.03 42.82"><defs><style>.cls-1{fill:none;stroke:#fff;stroke-miterlimit:10;}</style></defs><title>disappear</title><g id="disappear"><line class="cls-1" x1="7.94" y1="2.87" x2="5.95" y2="5.76"/><line class="cls-1" x1="5.02" y1="7.65" x2="5.02" y2="10.62"/><line class="cls-1" x1="5.95" y1="12.96" x2="6.94" y2="15.62"/><polyline class="cls-1" points="7.94 17.75 9.13 19.21 7.94 19.87"/><line class="cls-1" x1="9.13" y1="1.61" x2="12.85" y2="0.48"/><line class="cls-1" x1="5.95" y1="20.8" x2="3.42" y2="23.34"/><line class="cls-1" x1="2.23" y1="25.45" x2="0.5" y2="28.24"/><path class="cls-1" d="M293.43,405.69v3.18" transform="translate(-292.93 -374.79)"/><line class="cls-1" x1="0.5" y1="36.61" x2="0.5" y2="39.66"/><line class="cls-1" x1="0.5" y1="42.32" x2="3.42" y2="42.32"/><line class="cls-1" x1="6.44" y1="42.32" x2="9.13" y2="42.32"/><line class="cls-1" x1="11.92" y1="42.32" x2="13.78" y2="42.32"/><line class="cls-1" x1="19.1" y1="2.87" x2="21.09" y2="5.76"/><line class="cls-1" x1="22.02" y1="7.65" x2="22.02" y2="10.62"/><line class="cls-1" x1="21.09" y1="12.96" x2="20.09" y2="15.62"/><polyline class="cls-1" points="19.1 17.75 17.9 19.21 19.1 19.87"/><line class="cls-1" x1="17.9" y1="1.61" x2="14.18" y2="0.48"/><line class="cls-1" x1="21.09" y1="20.8" x2="23.61" y2="23.34"/><line class="cls-1" x1="24.81" y1="25.45" x2="26.53" y2="28.24"/><path class="cls-1" d="M319.46,405.69v3.18" transform="translate(-292.93 -374.79)"/><line class="cls-1" x1="26.53" y1="36.61" x2="26.53" y2="39.66"/><line class="cls-1" x1="26.53" y1="42.32" x2="23.61" y2="42.32"/><line class="cls-1" x1="20.59" y1="42.32" x2="17.9" y2="42.32"/><line class="cls-1" x1="15.11" y1="42.32" x2="13.25" y2="42.32"/></g></svg>