<svg id="Layer_1" data-name="Layer 1" xmlns="http://www.w3.org/2000/svg" viewBox="0 0 49.97 27.81"><defs><style>.cls-1{fill:#f7f7f7;}.cls-2{fill:#fff;}</style></defs><title>drown</title><g id="wave"><circle cx="24.99" cy="10.7" r="3.09"/><rect x="314.3" y="381.51" width="2.76" height="17.72" rx="1.38" ry="1.38" transform="translate(-73.06 -482.35) rotate(26.61)"/><rect x="295.15" y="381.51" width="2.76" height="17.72" rx="1.38" ry="1.38" transform="translate(455.15 224.26) rotate(153.39)"/><path class="cls-1" d="M282.16,394.8s-2.14,1.24.61,2.47l2.75,1.22a3.44,3.44,0,0,0,4.58,1.12c3-1.43,3.36-2.19,3.36-2.19a4.39,4.39,0,0,1,3,.46c1.23.81,1.84,2.49,4,2.16a9,9,0,0,0,3.56-1.36s2.55-1.67,3.36-1.24,2.24,2.61,4.48,2.64a8.79,8.79,0,0,0,4.38-1.4,2.17,2.17,0,0,1,3.57-.8,12.2,12.2,0,0,0,4.17,2.21s2.85-.2,4.28-1.41.2-1.21,1.43-1.21,2.64-2.59.91-2.67-4.48,2.06-4.48,2.06-.92,1.12-4-.1-2.41-1.67-3.36-2c-.45-.14-2-.06-4.08,1.35s-2.64,1.33-2.95,1.28-1.93-1.95-4.07-2a12.21,12.21,0,0,0-2.77.19,1.92,1.92,0,0,0-.84.4c-.63.53-2.08,1.63-3,1.44-1.23-.27-2.45-3-6.11-2.63s-3.87,1.35-3.87,1.35-1.74,2.05-2.86,1.28a13.25,13.25,0,0,0-4.07-2Z" transform="translate(-281.36 -382.3)"/><path class="cls-2" d="M282.16,399.71s-2.14,1.25.61,2.47l2.75,1.22a3.43,3.43,0,0,0,4.58,1.12c3-1.42,3.36-2.19,3.36-2.19a4.45,4.45,0,0,1,3,.46c1.23.82,1.84,2.5,4,2.17a9.09,9.09,0,0,0,3.56-1.37s2.55-1.67,3.36-1.23,2.24,2.61,4.48,2.64a8.86,8.86,0,0,0,4.38-1.41,2.17,2.17,0,0,1,3.57-.8,12.2,12.2,0,0,0,4.17,2.21s2.85-.2,4.28-1.41.2-1.21,1.43-1.21,2.64-2.59.91-2.67-4.48,2.06-4.48,2.06-.92,1.12-4-.1-2.41-1.66-3.36-2c-.45-.14-2-.06-4.08,1.36s-2.64,1.33-2.95,1.27-1.93-1.95-4.07-2a12.37,12.37,0,0,0-2.77.18,1.92,1.92,0,0,0-.84.4c-.63.54-2.08,1.64-3,1.44-1.23-.26-2.45-3-6.11-2.63s-3.87,1.36-3.87,1.36-1.74,2-2.86,1.27a13.26,13.26,0,0,0-4.07-2Z" transform="translate(-281.36 -382.3)"/><path class="cls-2" d="M282.16,404.82s-2.14,1.25.61,2.47l2.75,1.22a3.43,3.43,0,0,0,4.58,1.12c3-1.42,3.36-2.18,3.36-2.18a4.42,4.42,0,0,1,3,.45c1.23.82,1.84,2.5,4,2.17A9.09,9.09,0,0,0,304,408.7s2.55-1.67,3.36-1.23,2.24,2.61,4.48,2.64a8.86,8.86,0,0,0,4.38-1.41,2.17,2.17,0,0,1,3.57-.8,12.2,12.2,0,0,0,4.17,2.21s2.85-.2,4.28-1.41.2-1.21,1.43-1.21,2.64-2.59.91-2.67-4.48,2.06-4.48,2.06-.92,1.12-4-.1-2.41-1.66-3.36-2c-.45-.13-2-.06-4.08,1.36s-2.64,1.33-2.95,1.27-1.93-1.95-4.07-2a12.37,12.37,0,0,0-2.77.18,1.92,1.92,0,0,0-.84.4c-.63.54-2.08,1.64-3,1.44-1.23-.26-2.45-3-6.11-2.63s-3.87,1.36-3.87,1.36-1.74,2-2.86,1.27a13.49,13.49,0,0,0-4.07-2Z" transform="translate(-281.36 -382.3)"/></g></svg>