<svg id="Layer_1" data-name="Layer 1" xmlns="http://www.w3.org/2000/svg" viewBox="0 0 38.94 33.23"><defs><style>.cls-1{fill:#fff;}</style></defs><title>fall</title><g id="FALL"><rect class="cls-1" x="286.93" y="385.87" width="12.18" height="4.37" rx="2.19" ry="2.19" transform="translate(-82.47 -469.61) rotate(26.61)"/><rect class="cls-1" x="292.61" y="392.19" width="12.42" height="4.37" rx="2.19" ry="2.19" transform="translate(-227.8 448) rotate(-113.93)"/><rect class="cls-1" x="297.92" y="382.72" width="12.18" height="4.37" rx="2.19" ry="2.19" transform="translate(169.52 -460.62) rotate(56.46)"/><rect class="cls-1" x="299.16" y="390.12" width="12.18" height="4.37" rx="2.19" ry="2.19" transform="translate(480.02 -170.28) rotate(106.27)"/><path class="cls-1" d="M301.86,394.73s6,4.59,10,4l3.73.51a7.51,7.51,0,0,0,0,5.33L312.74,406a21.45,21.45,0,0,1-13.29-5S300.26,395.53,301.86,394.73Z" transform="translate(-287.34 -379.47)"/><rect class="cls-1" x="312.8" y="393.52" width="3.14" height="6.8" rx="1.57" ry="1.57" transform="translate(-138.48 -461.07) rotate(19.3)"/><rect class="cls-1" x="317.2" y="388.29" width="3.14" height="9.49" rx="1.57" ry="1.57" transform="translate(281.61 -426.33) rotate(68.67)"/><rect class="cls-1" x="311.13" y="405.79" width="8.97" height="3.8" rx="1.9" ry="1.9" transform="translate(193.69 -460.1) rotate(56.46)"/><rect class="cls-1" x="315.5" y="407.12" width="11.72" height="2.83" rx="1.42" ry="1.42" transform="translate(539.08 151.93) rotate(141.86)"/><circle class="cls-1" cx="32.08" cy="21.82" r="3.32"/></g></svg>