<svg id="infographic" xmlns="http://www.w3.org/2000/svg" viewBox="0 0 112.16 130.39"><defs><style>.cls-1,.cls-3,.cls-4{fill:#fff;}.cls-2{fill:#f04a23;}.cls-3,.cls-4{font-size:5px;font-family:MyriadPro-Regular, Myriad Pro;}.cls-3,.cls-5{letter-spacing:0.05em;}.cls-4{letter-spacing:0.06em;}.cls-6{letter-spacing:0.07em;}.cls-7{letter-spacing:0.06em;}.cls-8{letter-spacing:0.05em;}.cls-9{letter-spacing:0.04em;}</style></defs><title>graph1</title><g id="graph2"><g id="increase_graph"><path id="increase_arrow" class="cls-1" d="M43.59-21A1.47,1.47,0,0,0,44-18.89a2.43,2.43,0,0,0,2.29.34L67.51-39.9H91.77a6,6,0,0,0,1.66-1l20.32-20.39v10.71s.41,1.59,1.66,1.38a2.56,2.56,0,0,0,1.73-1V-65.62a1.6,1.6,0,0,0-1.59-1.8c-1.8-.13-15.21,0-15.21,0s-1.59.9-1.45,2a2.44,2.44,0,0,0,1.38,1.66l10.51.07-19.84,20-24.06.14s-.62-.26-1.65.74S43.59-21,43.59-21Z" transform="translate(-4.98 71.58)"/><rect id="graph_line" class="cls-1" x="50.64" y="46.4" width="3.04" height="6.78" rx="0.8" ry="0.8"/><rect id="graph_line-2" data-name="graph_line" class="cls-1" x="61.05" y="38.02" width="3.04" height="15.16" rx="0.8" ry="0.8"/><rect id="graph_line-3" data-name="graph_line" class="cls-1" x="71" y="34.77" width="3.65" height="18.41" rx="0.95" ry="0.95"/><rect id="graph_line-4" data-name="graph_line" class="cls-1" x="81.05" y="35.23" width="3.65" height="18.41" rx="0.95" ry="0.95"/><rect id="graph_line-5" data-name="graph_line" class="cls-1" x="91.33" y="31.66" width="3.65" height="21.52" rx="0.95" ry="0.95"/><rect id="graph_line-6" data-name="graph_line" class="cls-1" x="101.28" y="21.7" width="3.65" height="31.94" rx="0.95" ry="0.95"/></g><g id="increase_graph-2" data-name="increase_graph"><path id="increase_arrow-2" data-name="increase_arrow" class="cls-1" d="M41.17,55.78a1.47,1.47,0,0,0,.41,2.08,2.41,2.41,0,0,0,2.28.34L65.08,36.84H89.34a5.73,5.73,0,0,0,1.66-1l20.33-20.39V26.13s.41,1.59,1.65,1.38a2.56,2.56,0,0,0,1.73-1V11.13a1.59,1.59,0,0,0-1.59-1.8c-1.79-.14-15.2,0-15.2,0s-1.59.9-1.46,2A2.47,2.47,0,0,0,97.85,13l10.5.06-19.83,20-24.06.14S63.84,33,62.8,34,41.17,55.78,41.17,55.78Z" transform="translate(-4.98 71.58)"/><rect id="graph_line-7" data-name="graph_line" class="cls-1" x="48.21" y="123.15" width="3.04" height="6.78" rx="0.8" ry="0.8"/><rect id="graph_line-8" data-name="graph_line" class="cls-1" x="58.63" y="114.76" width="3.04" height="15.16" rx="0.8" ry="0.8"/><rect id="graph_line-9" data-name="graph_line" class="cls-1" x="68.58" y="111.51" width="3.65" height="18.41" rx="0.95" ry="0.95"/><rect id="graph_line-10" data-name="graph_line" class="cls-1" x="78.63" y="111.97" width="3.65" height="18.41" rx="0.95" ry="0.95"/><rect id="graph_line-11" data-name="graph_line" class="cls-1" x="88.91" y="108.4" width="3.65" height="21.52" rx="0.95" ry="0.95"/><rect id="graph_line-12" data-name="graph_line" class="cls-1" x="98.86" y="98.45" width="3.65" height="31.94" rx="0.95" ry="0.95"/></g><g id="TAGLINE_TEXT" data-name="TAGLINE&amp;TEXT"><polygon id="tagline_shadow" points="1.42 1.69 6.13 7.22 1.43 12.75 76.08 12.75 76.08 1.69 1.42 1.69"/><polygon id="tagline" class="cls-2" points="0 0 4.75 5.92 0.01 11.82 75.25 11.82 75.25 0 0 0"/><text class="cls-3" transform="translate(18.73 7.66)">Number of people</text><polygon id="tagline_shadow-2" data-name="tagline_shadow" points="3.96 67.81 8.68 73.05 3.97 78.27 78.63 78.27 78.63 67.81 3.96 67.81"/><polygon id="tagline-2" data-name="tagline" class="cls-2" points="2.42 65.67 7.17 71.59 2.43 77.49 77.67 77.49 77.67 65.67 2.42 65.67"/><text class="cls-4" transform="translate(16.91 73.24)">M<tspan class="cls-5" x="4.3" y="0">o</tspan><tspan class="cls-6" x="7.29" y="0">r</tspan><tspan class="cls-5" x="9.3" y="0">tal </tspan><tspan class="cls-7" x="16.6" y="0">R</tspan><tspan class="cls-8" x="19.6" y="0">a</tspan><tspan class="cls-9" x="22.25" y="0">t</tspan><tspan class="cls-5" x="24.12" y="0">e of people</tspan></text></g></g></svg>