<svg id="Layer_1" data-name="Layer 1" xmlns="http://www.w3.org/2000/svg" viewBox="0 0 390.72 104.63"><defs><style>.cls-1{fill:#ececec;}.cls-2{fill:#f7f8f8;}.cls-3{fill:#cfcfcf;}.cls-4{fill:#f26123;}.cls-5{fill:#004971;}.cls-6{fill:#fff;}.cls-7{fill:#ed2124;}.cls-8{fill:#70bad6;}</style></defs><title>h_bckgrd</title><g id="header_bckgrd"><g id="cliff"><polygon id="line" class="cls-1" points="312.92 24.42 305 54.73 331.92 86.42 335.09 76.76 321.25 58.09 321.09 26.59 312.92 24.42"/><polygon id="line-2" data-name="line" class="cls-2" points="312.92 24.42 305 54.73 266.25 73.26 265.25 65.26 291.25 50.92 305.42 22.26 312.92 24.42"/><polygon id="line-3" data-name="line" class="cls-3" points="266.25 73.26 269.75 81.42 300.25 77.42 324.92 91.76 331.92 86.42 305 54.73 266.25 73.26"/><g id="cliff-2" data-name="cliff"><polygon id="line-4" data-name="line" class="cls-1" points="343.96 33.84 351.79 64.17 390.72 78.77 388.79 68.78 367.62 59.2 352.15 31.76 343.96 33.84"/><polygon id="line-5" data-name="line" class="cls-2" points="343.96 33.84 351.79 64.17 326.94 99.2 322.18 92.7 337.92 67.53 336.36 35.59 343.96 33.84"/><polygon id="line-6" data-name="line" class="cls-3" points="326.94 99.2 333.97 104.63 358.67 86.3 387.2 86.83 390.72 78.77 351.79 64.17 326.94 99.2"/></g><g id="cliff-3" data-name="cliff"><polygon id="line-7" data-name="line" class="cls-1" points="239.13 38.55 233.81 58.91 251.9 80.21 254.03 73.72 244.74 61.17 244.62 40 239.13 38.55"/><polygon id="line-8" data-name="line" class="cls-2" points="239.13 38.55 233.81 58.91 207.77 71.36 207.1 65.99 224.57 56.36 234.09 37.09 239.13 38.55"/><polygon id="line-9" data-name="line" class="cls-3" points="207.77 71.36 210.13 76.85 230.62 74.17 247.2 83.8 251.9 80.21 233.81 58.91 207.77 71.36"/><g id="cliff-4" data-name="cliff"><polygon id="line-10" data-name="line" class="cls-1" points="260 44.87 265.25 65.26 291.42 75.07 290.12 68.36 275.89 61.92 265.5 43.48 260 44.87"/><polygon id="line-11" data-name="line" class="cls-2" points="260 44.87 265.25 65.26 248.56 88.8 245.35 84.43 255.94 67.52 254.88 46.05 260 44.87"/><polygon id="line-12" data-name="line" class="cls-3" points="248.56 88.8 253.28 92.45 269.88 80.13 289.05 80.49 291.42 75.07 265.25 65.26 248.56 88.8"/></g></g></g><g id="life_boat_icon"><path id="bottom" class="cls-4" d="M31.77,102.79s-8.18,12.56-22,14-35.87,2.6-35.87,2.6L-29,111.55Z" transform="translate(37.48 -37.03)"/><polygon id="head" class="cls-5" points="72.39 61.16 57.45 63.51 49.21 54.91 24.11 58.74 26.54 61.63 26.15 67.9 21.42 68.24 21.31 66.77 24.35 66.33 24.32 64.54 6.16 66.92 6.28 68.67 13.38 68.15 13.48 69.56 6.78 70.56 7.71 73.15 70.42 64.47 72.39 61.16"/><polygon id="window" class="cls-6" points="47.34 58.27 51.88 64 42.05 65.45 39.91 59.26 47.34 58.27"/><polygon id="window-2" data-name="window" class="cls-6" points="38.09 59.75 39.76 66.03 30 67.5 29.78 60.65 38.09 59.75"/></g><g id="human"><g id="human-2" data-name="human"><circle id="head-2" data-name="head" cx="137.28" cy="68.76" r="3.62"/><rect id="arm" x="101.94" y="106.97" width="6.03" height="1.9" transform="translate(-8.1 68.8) rotate(-45)"/><rect id="arm-2" data-name="arm" x="91.15" y="106.77" width="6.6" height="1.9" transform="translate(122.54 213.65) rotate(-135)"/><rect id="body" x="134.93" y="72.75" width="4.7" height="7.33"/></g><g id="life_tuve"><path id="white" class="cls-6" d="M91.84,116.61a27.34,27.34,0,0,0,15.93-.17v-1.87c-7.77-2.37-15.93-.24-15.93-.24Z" transform="translate(37.48 -37.03)"/><path id="red" class="cls-7" d="M93.66,114v3.1s2.17.4,2.59.45v-3.9Z" transform="translate(37.48 -37.03)"/><path id="red-2" data-name="red" class="cls-7" d="M105.82,114v3.1s-2.16.4-2.58.45v-3.9Z" transform="translate(37.48 -37.03)"/><path id="red-3" data-name="red" class="cls-7" d="M98.32,113.46v4.22a21.49,21.49,0,0,0,2.85,0v-4.17S99.15,113.42,98.32,113.46Z" transform="translate(37.48 -37.03)"/></g></g><g id="bird"><path id="bird-2" data-name="bird" class="cls-8" d="M-32.79,66.1s19.33-12.67,35.33,3.33c0,0,14-11.42,30-4,0,0-6.67-13.29-28.33-2C4.21,63.43-13.79,47.77-32.79,66.1Z" transform="translate(37.48 -37.03)"/><path id="bird-3" data-name="bird" class="cls-8" d="M18.4,51s12.27-8,22.41,2.11c0,0,8.88-7.25,19-2.57,0,0-4.23-8.42-18-1.23C41.87,49.29,30.45,39.35,18.4,51Z" transform="translate(37.48 -37.03)"/><path id="bird-4" data-name="bird" class="cls-8" d="M-37.48,48.34s9.81-6.43,17.93,1.69c0,0,7.1-5.79,15.22-2.05,0,0-3.38-6.74-14.37-1C-18.7,47-27.84,39-37.48,48.34Z" transform="translate(37.48 -37.03)"/><path id="bird-5" data-name="bird" class="cls-8" d="M-29.19,39.29s4.91-3.21,9,.85c0,0,3.56-2.9,7.61-1,0,0-1.69-3.37-7.18-.5A6.81,6.81,0,0,0-29.19,39.29Z" transform="translate(37.48 -37.03)"/></g></g></svg>