<svg id="Layer_1" data-name="Layer 1" xmlns="http://www.w3.org/2000/svg" viewBox="0 0 253.98 170.01"><defs><style>.cls-1{fill:#004d63;}.cls-17,.cls-2,.cls-22,.cls-3{fill:#fff;}.cls-3{font-size:5px;}.cls-17,.cls-3{font-family:MyriadPro-Regular, Myriad Pro;}.cls-4{letter-spacing:0em;}.cls-5{letter-spacing:-0.01em;}.cls-6{letter-spacing:0em;}.cls-7{letter-spacing:-0.01em;}.cls-8{letter-spacing:0.01em;}.cls-9{letter-spacing:-0.04em;}.cls-10{letter-spacing:-0.03em;}.cls-11{letter-spacing:-0.01em;}.cls-12{letter-spacing:0em;}.cls-13{letter-spacing:-0.01em;}.cls-14{letter-spacing:-0.01em;}.cls-15{letter-spacing:0.01em;}.cls-16{fill:#f9f9fa;}.cls-17{font-size:10px;}.cls-18{fill:none;stroke:#fff;stroke-miterlimit:10;stroke-width:3px;}.cls-19{fill:#c23b26;}.cls-20{fill:#b02423;}.cls-21{fill:#f04a23;}.cls-22{font-size:6.36px;font-family:NunitoSans-Regular, Nunito Sans;}.cls-23{letter-spacing:0.04em;}.cls-24{letter-spacing:0em;}.cls-25{letter-spacing:-0.01em;}.cls-26{letter-spacing:-0.01em;}.cls-27{letter-spacing:-0.01em;}</style></defs><title>tag_gra</title><g id="graph"><rect id="tag_bckgrd_shadow" x="4.84" y="6.81" width="244.94" height="163.2" rx="7.38" ry="7.38"/><rect id="tag_bckgrd" class="cls-1" x="6.41" width="247.58" height="168.11" rx="7.38" ry="7.38"/><g id="human_icon"><path id="human_icon-2" data-name="human_icon" class="cls-2" d="M201.69,389.8v2.56h13.72v-2a1.19,1.19,0,0,0-.57-1c-.64-.51-4-2.55-4-2.55l0-2.59a1.46,1.46,0,0,0,.48-.93c0-.55,0-3.66,0-3.66a2.28,2.28,0,0,0-2.2-1.92c-1.92,0-1.76.13-1.76.13a2.64,2.64,0,0,0-1.53,2v3.39a1.75,1.75,0,0,0,.52,1.08v2.39A17.74,17.74,0,0,0,201.69,389.8Z" transform="translate(-180.23 -310.6)"/><path id="human_icon-3" data-name="human_icon" class="cls-2" d="M196.48,391.38v2.25h12.07v-1.79a1.06,1.06,0,0,0-.5-.89c-.56-.44-3.52-2.24-3.52-2.24l0-2.28a1.25,1.25,0,0,0,.42-.82c0-.48,0-3.21,0-3.21a2,2,0,0,0-1.93-1.69c-1.69,0-1.55.11-1.55.11a2.34,2.34,0,0,0-1.34,1.74v3a1.53,1.53,0,0,0,.46.95v2.1A15.43,15.43,0,0,0,196.48,391.38Z" transform="translate(-180.23 -310.6)"/></g><g id="life_jacket"><path id="left" class="cls-2" d="M200.29,406.61h2.93s-.1,2.23,2.48,4.56V426.1s-.1.84-2.09.89-5.6,0-5.6,0a1.15,1.15,0,0,1-1.24-1.14V416S202.37,412.81,200.29,406.61Z" transform="translate(-180.23 -310.6)"/><path id="right" class="cls-2" d="M211.6,406.61h-2.93s.1,2.23-2.48,4.56V426.1s.1.84,2.09.89,5.6,0,5.6,0a1.15,1.15,0,0,0,1.24-1.14V416S209.52,412.81,211.6,406.61Z" transform="translate(-180.23 -310.6)"/></g><text class="cls-3" transform="translate(19.2 59.95)"><tspan class="cls-4">C</tspan><tspan class="cls-5" x="2.89" y="0">r</tspan><tspan x="4.47" y="0">oss </tspan><tspan class="cls-6" x="12.24" y="0">S</tspan><tspan x="14.71" y="0">a</tspan><tspan class="cls-7" x="17.13" y="0">f</tspan><tspan x="18.52" y="0">e</tspan><tspan class="cls-8" x="21.02" y="0">t</tspan><tspan x="22.72" y="0">y Line</tspan></text><text class="cls-3" transform="translate(19.2 90.06)"><tspan class="cls-9">F</tspan><tspan x="2.21" y="0">ar </tspan><tspan class="cls-10" x="7.31" y="0">F</tspan><tspan class="cls-11" x="9.62" y="0">r</tspan><tspan x="11.2" y="0">om Gua</tspan><tspan class="cls-5" x="27.57" y="0">r</tspan><tspan x="29.16" y="0">d</tspan></text><text class="cls-3" transform="translate(19.2 125.31)"><tspan class="cls-12">R</tspan><tspan x="2.71" y="0">em</tspan><tspan class="cls-13" x="9.38" y="0">o</tspan><tspan class="cls-5" x="12.1" y="0">v</tspan><tspan x="14.45" y="0">e Jacket</tspan></text><text class="cls-3" transform="translate(19.2 159.88)">Dange<tspan class="cls-5" x="13.82" y="0">r</tspan><tspan x="15.4" y="0">ous </tspan><tspan class="cls-14" x="23.94" y="0">A</tspan><tspan class="cls-15" x="26.94" y="0">c</tspan><tspan x="29.24" y="0">t</tspan></text><rect class="cls-2" x="16.26" y="129.24" width="233.52" height="0.33"/><rect class="cls-2" x="16.26" y="93.24" width="233.52" height="0.33"/><rect class="cls-2" x="16.26" y="63.24" width="233.52" height="0.33"/><rect id="line1" class="cls-16" x="52.06" y="37.55" width="128.5" height="9.86" rx="4.93" ry="4.93"/><rect id="line2" class="cls-16" x="52.06" y="72.63" width="102.89" height="9.86" rx="4.93" ry="4.93"/><rect id="line3" class="cls-16" x="52.06" y="104.3" width="155.56" height="9.86" rx="4.93" ry="4.93"/><rect id="linr4" class="cls-16" x="52.06" y="141.01" width="94.65" height="9.86" rx="4.93" ry="4.93"/><text class="cls-17" transform="translate(188.2 44.83)">36.7</text><text class="cls-17" transform="translate(211.2 113)">43.5</text><text class="cls-17" transform="translate(151.2 149.54)">25.2</text><text class="cls-17" transform="translate(164.73 80.16)">26.9</text><g id="icon"><g id="ban_icon"><circle class="cls-18" cx="25.72" cy="42.41" r="8.33"/><line class="cls-18" x1="19.45" y1="48.68" x2="31.99" y2="36.13"/></g><g id="ban_icon-2" data-name="ban_icon"><circle class="cls-18" cx="25.72" cy="142.5" r="8.33"/><line class="cls-18" x1="19.45" y1="148.77" x2="31.99" y2="136.22"/></g></g><g id="tagline"><rect class="cls-19" x="76.94" y="8.2" width="13.79" height="14.37"/><polygon class="cls-20" points="76.94 19.35 76.94 22.56 77.21 22.56 77.21 22.22 79.81 19.37 76.94 19.35"/><polygon class="cls-21" points="0 6.81 5.04 13.09 0.01 19.35 79.81 19.35 79.81 6.81 0 6.81"/><text class="cls-22" transform="translate(6.84 14.68)">Mo<tspan class="cls-23" x="8.88" y="0">r</tspan><tspan x="11.38" y="0">tal </tspan><tspan class="cls-24" x="20.03" y="0">R</tspan><tspan x="24.39" y="0">ate </tspan><tspan class="cls-25" x="34.92" y="0">b</tspan><tspan x="38.59" y="0">y </tspan><tspan class="cls-26" x="43.5" y="0">C</tspan><tspan x="47.75" y="0">a</tspan><tspan class="cls-27" x="51.12" y="0">r</tspan><tspan x="53.3" y="0">eless</tspan></text></g></g></svg>