<svg id="Layer_1" data-name="Layer 1" xmlns="http://www.w3.org/2000/svg" viewBox="0 0 264.93 134.1"><defs><style>.cls-1{fill:#f04a23;}.cls-2,.cls-3{font-size:3.9px;}.cls-10,.cls-15,.cls-2,.cls-3{fill:#fff;}.cls-11,.cls-15,.cls-2,.cls-3{font-family:MyriadPro-Regular, Myriad Pro;}.cls-2,.cls-4{letter-spacing:0.05em;}.cls-3{letter-spacing:0.06em;}.cls-5{letter-spacing:0.07em;}.cls-6{letter-spacing:0.06em;}.cls-7{letter-spacing:0.05em;}.cls-8{letter-spacing:0.04em;}.cls-9{letter-spacing:0.05em;}.cls-11{font-size:30px;fill:#004d63;stroke:#004d63;letter-spacing:0.1em;}.cls-11,.cls-13,.cls-14,.cls-15{stroke-miterlimit:10;}.cls-11,.cls-13{stroke-width:2px;}.cls-12{letter-spacing:0.02em;}.cls-13,.cls-14{fill:none;}.cls-13,.cls-14,.cls-15{stroke:#fff;}.cls-15{font-size:15px;letter-spacing:0.05em;}.cls-16{letter-spacing:0.05em;}.cls-17{letter-spacing:0.02em;}</style></defs><title>inc_gra</title><g id="graph"><g id="TAGLINE_TEXT" data-name="TAGLINE&amp;TEXT"><polygon id="tagline_shadow" points="5.55 1.32 9.23 5.64 5.56 9.95 63.81 9.95 63.81 1.32 5.55 1.32"/><polygon id="tagline" class="cls-1" points="4.44 0 8.15 4.62 4.45 9.22 63.16 9.22 63.16 0 4.44 0"/><text class="cls-2" transform="translate(19.06 5.97)">Number of people</text><polygon id="tagline_shadow-2" data-name="tagline_shadow" points="7.53 66.91 11.21 71 7.54 75.07 65.79 75.07 65.79 66.91 7.53 66.91"/><polygon id="tagline-2" data-name="tagline" class="cls-1" points="6.33 65.25 10.04 69.86 6.34 74.47 65.05 74.47 65.05 65.25 6.33 65.25"/><text class="cls-3" transform="translate(17.64 71.15)">M<tspan class="cls-4" x="3.36" y="0">o</tspan><tspan class="cls-5" x="5.69" y="0">r</tspan><tspan class="cls-4" x="7.26" y="0">tal </tspan><tspan class="cls-6" x="12.96" y="0">R</tspan><tspan class="cls-7" x="15.3" y="0">a</tspan><tspan class="cls-8" x="17.36" y="0">t</tspan><tspan class="cls-9" x="18.82" y="0">e of people</tspan></text></g><g id="increase_graph"><path id="increase_arrow" class="cls-10" d="M23.29,81.13a1.46,1.46,0,0,0,.41,2.07,2.43,2.43,0,0,0,2.28.35L47.2,62.19H71.47a6,6,0,0,0,1.66-1L93.45,40.76V51.47s.41,1.59,1.66,1.39a2.55,2.55,0,0,0,1.72-1V36.48a1.59,1.59,0,0,0-1.59-1.8c-1.79-.14-15.2,0-15.2,0s-1.59.9-1.45,2A2.42,2.42,0,0,0,80,38.34l10.5.07L70.64,58.46l-24.06.13s-.62-.25-1.66.74S23.29,81.13,23.29,81.13Z" transform="translate(-19.8 -22.14)"/><rect id="graph_line" class="cls-10" x="15.51" y="54.78" width="3.04" height="6.78" rx="0.8" ry="0.8"/><rect id="graph_line-2" data-name="graph_line" class="cls-10" x="25.93" y="46.39" width="3.04" height="15.16" rx="0.8" ry="0.8"/><rect id="graph_line-3" data-name="graph_line" class="cls-10" x="35.88" y="43.14" width="3.65" height="18.41" rx="0.95" ry="0.95"/><rect id="graph_line-4" data-name="graph_line" class="cls-10" x="45.93" y="43.6" width="3.65" height="18.41" rx="0.95" ry="0.95"/><rect id="graph_line-5" data-name="graph_line" class="cls-10" x="56.21" y="40.03" width="3.65" height="21.52" rx="0.95" ry="0.95"/><rect id="graph_line-6" data-name="graph_line" class="cls-10" x="66.16" y="30.08" width="3.65" height="31.94" rx="0.95" ry="0.95"/></g><g id="increase_graph-2" data-name="increase_graph"><path id="increase_arrow-2" data-name="increase_arrow" class="cls-10" d="M20.07,148.21a1.46,1.46,0,0,0,.42,2.07,2.44,2.44,0,0,0,2.28.35L44,129.27H68.25a5.62,5.62,0,0,0,1.66-1l20.32-20.39v10.72s.42,1.59,1.66,1.38a2.59,2.59,0,0,0,1.73-1V103.56a1.59,1.59,0,0,0-1.59-1.8c-1.8-.14-15.21,0-15.21,0s-1.59.9-1.45,2a2.44,2.44,0,0,0,1.38,1.66l10.51.07L67.42,125.54l-24.05.14s-.62-.26-1.66.73S20.07,148.21,20.07,148.21Z" transform="translate(-19.8 -22.14)"/><rect id="graph_line-7" data-name="graph_line" class="cls-10" x="12.3" y="121.86" width="3.04" height="6.78" rx="0.8" ry="0.8"/><rect id="graph_line-8" data-name="graph_line" class="cls-10" x="22.71" y="113.47" width="3.04" height="15.16" rx="0.8" ry="0.8"/><rect id="graph_line-9" data-name="graph_line" class="cls-10" x="32.67" y="110.22" width="3.65" height="18.41" rx="0.95" ry="0.95"/><rect id="graph_line-10" data-name="graph_line" class="cls-10" x="42.71" y="110.68" width="3.65" height="18.41" rx="0.95" ry="0.95"/><rect id="graph_line-11" data-name="graph_line" class="cls-10" x="52.99" y="107.11" width="3.65" height="21.52" rx="0.95" ry="0.95"/><rect id="graph_line-12" data-name="graph_line" class="cls-10" x="62.95" y="97.16" width="3.65" height="31.94" rx="0.95" ry="0.95"/></g></g><g id="TEXT_ARROW" data-name="TEXT&amp;ARROW"><g id="TEXT"><text class="cls-11" transform="translate(113.66 30.73)">REAL<tspan class="cls-12" x="75.42" y="0">L</tspan><tspan x="90.06" y="0">Y?</tspan></text></g><path id="LINE" class="cls-13" d="M103.47,137.55S147,99,103.47,60.8" transform="translate(-19.8 -22.14)"/><path id="LINE-2" data-name="LINE" class="cls-13" d="M122.8,98.83S163,108,178,71.56" transform="translate(-19.8 -22.14)"/><polygon id="LINE-3" data-name="LINE" class="cls-10" points="154.44 48.44 160.83 51.78 160 46.78 154.44 48.44"/><path id="LINE-4" data-name="LINE" class="cls-14" d="M164.05,90.44s3.62,46.59,6.6,63.09" transform="translate(-19.8 -22.14)"/><polygon id="LINE-5" data-name="LINE" class="cls-10" points="149.18 131.76 152.51 131.01 151.68 134.1 149.18 131.76"/><text class="cls-15" transform="translate(162.2 106.37)">BE<tspan class="cls-16" x="17.01" y="0">C</tspan><tspan class="cls-17" x="26.52" y="0">A</tspan><tspan x="36.03" y="0">USE OF ...</tspan></text></g></svg>