<svg id="Layer_1" data-name="Layer 1" xmlns="http://www.w3.org/2000/svg" viewBox="0 0 99.55 103"><defs><style>.cls-1{fill:#005063;}.cls-2{fill:#f36d4a;}.cls-3{fill:#ed3f25;}.cls-11,.cls-4{font-size:10.76px;stroke:#fff;stroke-miterlimit:10;font-family:MyriadPro-Regular, Myriad Pro;}.cls-11,.cls-13,.cls-14,.cls-4,.cls-7,.cls-8{fill:#fff;}.cls-4{letter-spacing:0.03em;}.cls-5{letter-spacing:0.1em;}.cls-6{letter-spacing:1.09em;}.cls-8{font-size:6.45px;}.cls-14,.cls-8{font-family:NunitoSans-Regular, Nunito Sans;}.cls-9{letter-spacing:0.04em;}.cls-10{letter-spacing:0em;}.cls-11{letter-spacing:-0.02em;}.cls-12{letter-spacing:0.05em;}.cls-13{font-size:3.76px;font-family:ArialMT, Arial;}.cls-14{font-size:5.38px;}</style></defs><title>info</title><g id="info"><rect id="info_box" class="cls-1" y="16.73" width="99.55" height="86.28" rx="7.81" ry="7.81"/><g id="signal"><rect id="bottom" class="cls-1" x="74.2" y="15.19" width="21.6" height="2.53" rx="0.94" ry="0.94"/><path id="orange" class="cls-2" d="M504.34,155V170.2h-8.06s-.62-6.62.43-9.37S498,154.7,504.34,155Z" transform="translate(-419.58 -155)"/><path id="red" class="cls-3" d="M504.34,155V170.2H513s.48-6.59-.56-9.37S511.17,154.62,504.34,155Z" transform="translate(-419.58 -155)"/></g><g id="data_info2"><text class="cls-4" transform="translate(14.62 48.78)">T<tspan class="cls-5" x="5.66" y="0">otal: 2,874</tspan><tspan class="cls-6" x="63.48" y="0">	</tspan></text><rect id="line" class="cls-7" x="10.68" y="57.37" width="79.59" height="0.27"/><text class="cls-8" transform="translate(10.3 67.93)">Mo<tspan class="cls-9" x="9.01" y="0">r</tspan><tspan x="11.54" y="0">tal </tspan><tspan class="cls-10" x="20.32" y="0">R</tspan><tspan x="24.74" y="0">ate</tspan></text><text class="cls-11" transform="translate(14.62 83.07)">T<tspan class="cls-12" x="5.12" y="0">otal: 384 </tspan></text><text class="cls-13" transform="translate(64.53 90.11)">(Annual: 180)</text><text class="cls-14" transform="translate(10.3 32.62)">Accident Rate</text></g></g></svg>