<svg id="Layer_1" data-name="Layer 1" xmlns="http://www.w3.org/2000/svg" viewBox="0 0 124.58 111.58"><defs><style>.cls-1{fill:#f7c994;}.cls-2{fill:#fcf9e3;stroke:#a19988;stroke-miterlimit:10;}.cls-3{font-size:10px;fill:#a59a85;font-family:MyriadPro-Regular, Myriad Pro;}.cls-4{letter-spacing:-0.04em;}.cls-5{letter-spacing:-0.01em;}.cls-6{letter-spacing:-0.01em;}.cls-7{letter-spacing:0em;}.cls-8{fill:#e55e2e;}.cls-9{fill:#ed2024;}</style></defs><title>life_guard</title><g id="life_guard"><path class="cls-1" d="M134.83,55s-.17,2.33.75,3.08c0,0-7,8.33-5.59,9.5l1.92.75V70a5.13,5.13,0,0,0,2.08.83c1,.08-.91,3,0,3.83s0,2.25,0,2.25,1.17,1.17.67,2.17-1.75,4.58.92,5.17,8.91,0,8.91,0,3.59,6.08-3.16,7.75-7.84,1.5-7.84,1.5-15,1.41-17.41,14.91-2.25,15.34-2.25,15.34l.33,27.08h78.42l.5-39.42s-1.92-12.16-16.17-17.16-11.17-9.17-11.17-9.17S163.08,76.55,168,72s3.59-17,3.59-17-.5-2.34-1-2.42-4.67,2.75-7.09,2.5Z" transform="translate(-68.49 -39.22)"/><rect class="cls-2" x="0.5" y="0.5" width="103.5" height="15.76" rx="7.33" ry="7.33"/><text class="cls-3" transform="translate(17.17 11.43)"><tspan class="cls-4">T</tspan><tspan x="4.57" y="0">ype of </tspan><tspan class="cls-5" x="32.63" y="0">A</tspan><tspan class="cls-6" x="38.63" y="0">c</tspan><tspan x="43.05" y="0">cide</tspan><tspan class="cls-7" x="60.52" y="0">n</tspan><tspan x="66.03" y="0">t</tspan></text><path class="cls-8" d="M114.16,150.8s-2.48-36.54,2.83-45.68,7-8.28,7-8.28a30.42,30.42,0,0,1,9.54-3.37c5.48-.94,9.16-1.94,9.16-1.94l2.11-1.6s10-3.89,23.32,0c0,0,3.27,2.45,10.57,5s11.91,10.16,11.91,10.16,2.55,4,2.52,6.33l-.5,39.42Z" transform="translate(-68.49 -39.22)"/><rect x="45.3" y="101.51" width="78.85" height="5.01"/><rect x="45.3" y="93.26" width="78.85" height="5.01"/><rect class="cls-9" x="79.79" y="61.83" width="11.08" height="24.68"/><rect class="cls-9" x="147.93" y="101.05" width="11.08" height="24.68" transform="translate(-28.4 227.65) rotate(-90)"/></g></svg>