<svg id="Layer_1" data-name="Layer 1" xmlns="http://www.w3.org/2000/svg" viewBox="0 0 133.6 109.15"><defs><style>.cls-1{fill:#f7c994;}.cls-2{fill:#e55e2e;}.cls-3{fill:#172734;}.cls-4{fill:#323a4e;}.cls-5{fill:#2c689d;}.cls-6{fill:#323a4c;}.cls-7{fill:#2c689b;}.cls-10,.cls-8{fill:none;stroke-miterlimit:10;}.cls-8{stroke:#ecf0f1;stroke-width:10px;}.cls-9{fill:#ef3c30;}.cls-10{stroke:#000;stroke-width:5px;opacity:0.05;}</style></defs><title>life_g</title><g id="life_gurad"><g id="body"><path id="arm" class="cls-1" d="M310.73,372.64s3.14,11.06,5.61,11.56,19.3,0,19.3,0,2.53.51,1.91,1.69a4.85,4.85,0,0,1-1.51,1.74s-15,3.93-24,2.13c0,0-3.48-1.63-4.55-4.15S310.73,372.64,310.73,372.64Z" transform="translate(-239.81 -342.69)"/><g id="liofe_jacket"><path id="life_jackety" class="cls-2" d="M301.34,406.54,285,402.27s6.17-20.09,12.9-29.18,7.52-8,7.52-8,6.74.22,7.41,3.81-3.7,19.08-3.7,19.08Z" transform="translate(-239.81 -342.69)"/><polygon class="cls-3" points="64.94 55.71 63.96 58.06 47.74 51.97 48.62 49.6 64.94 55.71"/><polygon class="cls-3" points="66.49 52.2 65.51 54.55 49.09 48.38 50 46.09 66.49 52.2"/></g><path id="arm-2" data-name="arm" class="cls-1" d="M302.58,371.61s6.81.11,6.47,4.77-4.09,4.49-4.09,4.49l-19.81-2.42-16.55,9.88s-1.86.9-2.42,0,.62-2.36.62-2.36,12.91-13.13,17.17-14S302.58,371.61,302.58,371.61Z" transform="translate(-239.81 -342.69)"/><path id="face" class="cls-1" d="M325,353.75v1.84l1.33,2.58-1.8.9s-2,6.84-3.81,7.29a18.47,18.47,0,0,1-5.16,0l-2.81-1.23v2.8s-2.8-2.8-6-2.69l2.81-2.7s-2.89-4.11-2.34-8.11S323.93,352.37,325,353.75Z" transform="translate(-239.81 -342.69)"/><g id="cap"><path class="cls-4" d="M325.58,351s7.3,1.8,5.62,2.47-12.77-.2-12.77-.2A33.27,33.27,0,0,0,325.58,351Z" transform="translate(-239.81 -342.69)"/><path class="cls-5" d="M325.49,351s-.34-10.1-8.76-8-9.42,6.17-9.42,6.17v5.28S322.12,353.75,325.49,351Z" transform="translate(-239.81 -342.69)"/></g><g id="legs"><path id="leg" class="cls-1" d="M312,412.26s3.42,1.57,4.32,6.74,5.05,25.42,5.05,25.42a8.89,8.89,0,0,0,3,1.68,42.51,42.51,0,0,0,7.4,1.23s1.07,1.13,0,1.57-8.25.34-12.51,2.64c0,0-2.81,1.18-3-1.18s-.28-4.49-.28-4.49a21.79,21.79,0,0,0-1.91-6.39c-1.51-3-6.84-14.54-7.52-17.45a15.29,15.29,0,0,0-2.35-1.58C303.64,420.29,306.67,410.58,312,412.26Z" transform="translate(-239.81 -342.69)"/><path id="leg-2" data-name="leg" class="cls-1" d="M282.83,424.61s-2.47,4.54-9.15.56S258,415.07,258,415.07s-5.5-4.55-8.48-4.21-8.92,1.57-8.92,1.57-2-.79.51-1.91a69.08,69.08,0,0,0,7.74-4.82s2.53-3,4.38-2.53,1.34,3.31,1.34,3.31a57.4,57.4,0,0,0,9.77,4.94,78.51,78.51,0,0,1,10.6,5.12Z" transform="translate(-239.81 -342.69)"/></g><g id="pants"><path id="pant" class="cls-6" d="M291.46,416.54s-5.21,7.11-8.63,8.07l-7.92-8.07L285,401.79Z" transform="translate(-239.81 -342.69)"/><path id="pant-2" data-name="pant" class="cls-7" d="M300.75,406.05s8.52,3.85,10.69,6.14L305,421.05s-16.38-5.53-17.62-6.13-3.48-3-3.51-5.31a51.89,51.89,0,0,1,1.19-7.82S298.21,404.85,300.75,406.05Z" transform="translate(-239.81 -342.69)"/></g></g><g id="tube_icon"><circle id="white" class="cls-8" cx="107.65" cy="42.33" r="20.95"/><path id="red" class="cls-9" d="M370.77,395.83l-8-5.34c-.2,0,1.93-5.9-.08-10.8l8.06-5.48A22.94,22.94,0,0,1,373.19,385,25.3,25.3,0,0,1,370.77,395.83Z" transform="translate(-239.81 -342.69)"/><path id="red-2" data-name="red" class="cls-9" d="M324.15,395.83l8-5.34c.2,0-1.94-5.9.08-10.8l-8.06-5.48A22.94,22.94,0,0,0,321.73,385,25.3,25.3,0,0,0,324.15,395.83Z" transform="translate(-239.81 -342.69)"/><path id="red-3" data-name="red" class="cls-9" d="M357.76,361.55l-5.34,8c0,.2-5.08-2-10.72.28L336.14,362a20.21,20.21,0,0,1,10.81-2.9A25.22,25.22,0,0,1,357.76,361.55Z" transform="translate(-239.81 -342.69)"/><path class="cls-9" d="M358.08,408.39l-5.33-8c0-.2-5.29,1.95-11.07-.16l-5.35,8a22.42,22.42,0,0,0,10.95,2.64A25.14,25.14,0,0,0,358.08,408.39Z" transform="translate(-239.81 -342.69)"/><ellipse id="shadow" class="cls-10" cx="107.4" cy="42.33" rx="17.21" ry="17.55"/></g></g></svg>