<svg id="Layer_1" data-name="Layer 1" xmlns="http://www.w3.org/2000/svg" viewBox="0 0 33.64 37.29"><defs><style>.cls-1{fill:#ef3c30;}.cls-1,.cls-2{stroke:#fff;stroke-miterlimit:10;}.cls-2{fill:#ef3d31;}</style></defs><title>lj</title><g id="life_jacket"><path id="left" class="cls-1" d="M365.79-176.59H371s-.18,4,4.41,8.12v26.55s-.18,1.5-3.71,1.59-10,0-10,0a2,2,0,0,1-2.21-2v-17.56S369.5-165.56,365.79-176.59Z" transform="translate(-359.03 177.09)"/><path id="right" class="cls-2" d="M385.91-176.59H380.7s.18,4-4.41,8.12v26.55s.18,1.5,3.71,1.59,10,0,10,0a2,2,0,0,0,2.21-2v-17.56S382.2-165.56,385.91-176.59Z" transform="translate(-359.03 177.09)"/></g></svg>