<svg id="Layer_1" data-name="Layer 1" xmlns="http://www.w3.org/2000/svg" viewBox="0 0 36.69 31.13"><defs><style>.cls-1{fill:#ef3d31;stroke:#fff;stroke-miterlimit:10;}</style></defs><title>parent</title><g id="human_icon"><path id="human_icon-2" data-name="human_icon" class="cls-1" d="M246.92-150.78v4.83h25.87v-3.84a2.25,2.25,0,0,0-1.07-1.92c-1.21-.94-7.56-4.81-7.56-4.81l0-4.88a2.71,2.71,0,0,0,.9-1.75c0-1,0-6.89,0-6.89a4.28,4.28,0,0,0-4.15-3.62c-3.62-.08-3.32.23-3.32.23a5,5,0,0,0-2.88,3.74v6.4a3.36,3.36,0,0,0,1,2v4.5S250.12-154.19,246.92-150.78Z" transform="translate(-236.6 174.18)"/><path id="human_icon-3" data-name="human_icon" class="cls-1" d="M237.1-147.8v4.25h22.75v-3.37a2,2,0,0,0-.94-1.69c-1.06-.83-6.64-4.23-6.64-4.23l0-4.29a2.38,2.38,0,0,0,.79-1.54c0-.92,0-6.06,0-6.06a3.77,3.77,0,0,0-3.65-3.19c-3.19-.06-2.92.21-2.92.21a4.4,4.4,0,0,0-2.54,3.29v5.62a3,3,0,0,0,.88,1.79v4A29.18,29.18,0,0,0,237.1-147.8Z" transform="translate(-236.6 174.18)"/></g></svg>