<svg id="Layer_1" data-name="Layer 1" xmlns="http://www.w3.org/2000/svg" viewBox="0 0 27.54 33.2"><defs><style>.cls-1{fill:#fff;}</style></defs><title>slip</title><g id="FALL"><rect class="cls-1" x="307.73" y="406.06" width="10.24" height="3.68" rx="1.84" ry="1.84" transform="translate(-217.61 484.17) rotate(-114.97)"/><rect class="cls-1" x="302.46" y="401.02" width="10.44" height="3.68" rx="1.84" ry="1.84" transform="translate(-88.71 -472.85) rotate(25.57)"/><rect class="cls-1" x="310.64" y="396.89" width="10.24" height="3.68" rx="1.84" ry="1.84" transform="translate(51.34 527.05) rotate(-144.82)"/><rect class="cls-1" x="304.45" y="395.67" width="10.24" height="3.68" rx="1.84" ry="1.84" transform="translate(416.74 324.47) rotate(165.37)"/><path class="cls-1" d="M307.46,400.3s-3.72-5.15-3.13-8.51l-.34-3.14a6.34,6.34,0,0,1-4.48-.13l-1.24,2.36a18,18,0,0,0,3.85,11.29S306.74,401.63,307.46,400.3Z" transform="translate(-292.74 -379.51)"/><rect class="cls-1" x="304.59" y="386.87" width="2.64" height="5.72" rx="1.32" ry="1.32" transform="translate(-265.4 419.93) rotate(-107.66)"/><rect class="cls-1" x="307.97" y="382.13" width="2.64" height="7.98" rx="1.32" ry="1.32" transform="translate(150.61 482.82) rotate(-157.03)"/><rect class="cls-1" x="293.13" y="386.83" width="7.54" height="3.19" rx="1.6" ry="1.6" transform="matrix(-0.82, -0.58, 0.58, -0.82, 23, 497.45)"/><rect class="cls-1" x="291.39" y="382.38" width="9.86" height="2.38" rx="1.19" ry="1.19" transform="translate(487.96 21.78) rotate(129.78)"/><circle class="cls-1" cx="9.63" cy="5.87" r="2.79"/></g></svg>