<svg id="Layer_1" data-name="Layer 1" xmlns="http://www.w3.org/2000/svg" viewBox="0 0 90.73 170.01"><defs><style>.cls-1{fill:#004d63;}.cls-2{fill:#c23b26;}.cls-3{fill:#b02423;}.cls-4{fill:#f04a23;}.cls-5{font-size:6.36px;}.cls-11,.cls-5,.cls-9{fill:#fff;}.cls-11,.cls-5{font-family:NunitoSans-Regular, Nunito Sans;}.cls-6{letter-spacing:-0.01em;}.cls-7{letter-spacing:-0.01em;}.cls-8{letter-spacing:0em;}.cls-10{fill:none;stroke:#fff;stroke-miterlimit:10;stroke-width:3px;}.cls-11{font-size:5.3px;}.cls-12{letter-spacing:-0.02em;}.cls-13{letter-spacing:0em;}.cls-14{letter-spacing:-0.01em;}.cls-15{letter-spacing:-0.01em;}.cls-16{letter-spacing:0em;}.cls-17{letter-spacing:0em;}.cls-18{letter-spacing:-0.01em;}.cls-19{letter-spacing:-0.01em;}</style></defs><title>tagline</title><g id="tagline"><g id="tag_line_right"><rect id="tag_bckgrd_shadow" x="4.84" y="6.81" width="84.45" height="163.2" rx="7.38" ry="7.38"/><rect id="tag_bckgrd" class="cls-1" x="6.41" width="84.32" height="168.11" rx="7.38" ry="7.38"/><g id="tagline-2" data-name="tagline"><rect class="cls-2" x="76.94" y="8.2" width="13.79" height="14.37"/><polygon class="cls-3" points="76.94 19.35 76.94 22.56 77.21 22.56 77.21 22.22 79.81 19.37 76.94 19.35"/><polygon class="cls-4" points="0 6.81 5.04 13.09 0.01 19.35 79.81 19.35 79.81 6.81 0 6.81"/><text class="cls-5" transform="translate(12.33 14.59)"><tspan class="cls-6">Pr</tspan><tspan class="cls-7" x="6.22" y="0">ev</tspan><tspan x="12.77" y="0">ention M</tspan><tspan class="cls-8" x="37.52" y="0">e</tspan><tspan x="40.85" y="0">thod</tspan></text></g><g id="line"><rect id="line-2" data-name="line" class="cls-9" x="14.01" y="66.25" width="66.11" height="0.35"/><rect id="line-3" data-name="line" class="cls-9" x="14.01" y="99.13" width="66.11" height="0.35"/><rect id="line-4" data-name="line" class="cls-9" x="14.01" y="130.95" width="66.11" height="0.35"/></g><g id="icon"><g id="ban_icon"><circle class="cls-10" cx="26.05" cy="50.81" r="8.33"/><line class="cls-10" x1="19.78" y1="57.09" x2="32.33" y2="44.54"/></g><g id="ban_icon-2" data-name="ban_icon"><circle class="cls-10" cx="26.05" cy="150.9" r="8.33"/><line class="cls-10" x1="19.78" y1="157.17" x2="32.33" y2="144.63"/></g></g><g id="text"><text class="cls-11" transform="translate(41.94 49.08)">Do<tspan class="cls-12" x="6.86" y="0">n</tspan><tspan class="cls-13" x="9.77" y="0">’</tspan><tspan x="11" y="0">t c</tspan><tspan class="cls-14" x="16.71" y="0">r</tspan><tspan x="18.53" y="0">oss </tspan><tspan class="cls-15" x="27.94" y="0">ov</tspan><tspan x="33.54" y="0">er </tspan><tspan x="0" y="6.36">the sa</tspan><tspan class="cls-16" x="14.33" y="6.36">f</tspan><tspan x="16.05" y="6.36">e line</tspan></text><text class="cls-11" transform="translate(41.94 79.19)"><tspan class="cls-17">S</tspan><tspan x="3.26" y="0">tay near</tspan><tspan class="cls-15" x="22.45" y="0">b</tspan><tspan x="25.51" y="0">y </tspan><tspan x="0" y="6.36">whe</tspan><tspan class="cls-14" x="10.27" y="6.36">r</tspan><tspan x="12.09" y="6.36">e li</tspan><tspan class="cls-16" x="18.71" y="6.36">f</tspan><tspan x="20.43" y="6.36">e </tspan><tspan x="0" y="12.73">gua</tspan><tspan class="cls-14" x="8.89" y="12.73">r</tspan><tspan x="10.71" y="12.73">d is</tspan></text><text class="cls-11" transform="translate(41.94 112.73)"><tspan xml:space="preserve"> Al</tspan><tspan class="cls-18" x="6.45" y="0">w</tspan><tspan x="10.87" y="0">a</tspan><tspan class="cls-18" x="13.68" y="0">y</tspan><tspan x="16.36" y="0">s </tspan><tspan class="cls-19" x="20.27" y="0">w</tspan><tspan x="24.69" y="0">aer </tspan><tspan x="0" y="6.36">li</tspan><tspan class="cls-16" x="2.46" y="6.36">f</tspan><tspan x="4.17" y="6.36">e jac</tspan><tspan class="cls-18" x="14.92" y="6.36">k</tspan><tspan class="cls-17" x="17.52" y="6.36">e</tspan><tspan x="20.3" y="6.36">t</tspan></text><text class="cls-11" transform="translate(41.96 148.08)">Do<tspan class="cls-12" x="6.86" y="0">n</tspan><tspan class="cls-13" x="9.77" y="0">’</tspan><tspan x="11" y="0">t do any </tspan><tspan x="0" y="6.36">dange</tspan><tspan class="cls-14" x="14.81" y="6.36">r</tspan><tspan x="16.63" y="6.36">ous thing</tspan></text></g><g id="human_icon"><path id="human_icon-2" data-name="human_icon" class="cls-9" d="M282.69,398.8v2.56h13.72v-2a1.19,1.19,0,0,0-.57-1c-.64-.51-4-2.55-4-2.55l0-2.59a1.46,1.46,0,0,0,.48-.93c0-.55,0-3.66,0-3.66a2.28,2.28,0,0,0-2.2-1.92c-1.92,0-1.76.13-1.76.13a2.64,2.64,0,0,0-1.53,2v3.39a1.75,1.75,0,0,0,.52,1.08v2.39A17.74,17.74,0,0,0,282.69,398.8Z" transform="translate(-260.89 -311.2)"/><path id="human_icon-3" data-name="human_icon" class="cls-9" d="M277.48,400.38v2.25h12.07v-1.79a1.06,1.06,0,0,0-.5-.89c-.56-.44-3.52-2.24-3.52-2.24l0-2.28a1.25,1.25,0,0,0,.42-.82c0-.48,0-3.21,0-3.21a2,2,0,0,0-1.93-1.69c-1.69,0-1.55.11-1.55.11a2.34,2.34,0,0,0-1.34,1.74v3a1.53,1.53,0,0,0,.46.95v2.1A15.43,15.43,0,0,0,277.48,400.38Z" transform="translate(-260.89 -311.2)"/></g><g id="life_jacket"><path id="left" class="cls-9" d="M281.29,415.61h2.93s-.1,2.23,2.48,4.56V435.1s-.1.84-2.09.89-5.6,0-5.6,0a1.15,1.15,0,0,1-1.24-1.14V425S283.37,421.81,281.29,415.61Z" transform="translate(-260.89 -311.2)"/><path id="right" class="cls-9" d="M292.6,415.61h-2.93s.1,2.23-2.48,4.56V435.1s.1.84,2.09.89,5.6,0,5.6,0a1.15,1.15,0,0,0,1.24-1.14V425S290.52,421.81,292.6,415.61Z" transform="translate(-260.89 -311.2)"/></g></g></g></svg>