<svg id="Layer_1" data-name="Layer 1" xmlns="http://www.w3.org/2000/svg" viewBox="0 0 130.76 131.37"><defs><style>.cls-1,.cls-3{fill:none;}.cls-1{stroke:#ecf0f1;stroke-width:24px;}.cls-1,.cls-3,.cls-5{stroke-miterlimit:10;}.cls-2,.cls-4{fill:#ef3c30;}.cls-3{stroke:#000;stroke-width:19px;opacity:0.05;}.cls-4{font-size:10px;}.cls-4,.cls-5{font-family:MyriadPro-Regular, Myriad Pro;letter-spacing:0.05em;}.cls-5{font-size:25px;fill:#f04a23;stroke:#ef4b24;stroke-width:2px;}</style></defs><title>tube4</title><g id="tube_icon"><circle id="white" class="cls-1" cx="65.39" cy="65.81" r="53.23"/><path id="red" class="cls-2" d="M15.3,113.94l20.27-13.56c.51.07-4.91-15,.21-27.42L15.3,59S9,70.11,9.15,86.49,15.3,113.94,15.3,113.94Z" transform="translate(-9.14 -20.68)"/><path id="red-2" data-name="red" class="cls-2" d="M133.75,113.94l-20.27-13.56c-.51.07,4.91-15-.22-27.42L133.75,59s6.34,11.08,6.15,27.46S133.75,113.94,133.75,113.94Z" transform="translate(-9.14 -20.68)"/><path id="red-3" data-name="red" class="cls-2" d="M48.36,26.87l13.56,20.4c-.06.51,12.9-5.1,27.24.7l14.11-19.91a51.37,51.37,0,0,0-27.45-7.38C59.44,20.87,48.36,26.87,48.36,26.87Z" transform="translate(-9.14 -20.68)"/><path class="cls-2" d="M47.53,145.85l13.56-20.39c-.07-.52,13.44,5,28.11-.41l13.59,20.27A56.89,56.89,0,0,1,75,152C58.6,151.85,47.53,145.85,47.53,145.85Z" transform="translate(-9.14 -20.68)"/><ellipse id="shadow" class="cls-3" cx="66.02" cy="65.81" rx="43.73" ry="44.59"/></g><text class="cls-4" transform="translate(42.58 54.54)">Disappear</text><text class="cls-5" transform="translate(41.46 83.56)">25%</text></svg>