<svg id="Layer_1" data-name="Layer 1" xmlns="http://www.w3.org/2000/svg" viewBox="0 0 130.76 131.37"><defs><style>.cls-1,.cls-3{fill:none;}.cls-1{stroke:#ecf0f1;stroke-width:24px;}.cls-1,.cls-3,.cls-5{stroke-miterlimit:10;}.cls-2,.cls-4{fill:#ef3c30;}.cls-3{stroke:#000;stroke-width:19px;opacity:0.05;}.cls-4{font-size:15px;}.cls-4,.cls-5{font-family:MyriadPro-Regular, Myriad Pro;letter-spacing:0.05em;}.cls-5{font-size:25px;fill:#f04a23;stroke:#ef4b24;stroke-width:2px;}</style></defs><title>tube2</title><g id="tube_icon"><circle id="white" class="cls-1" cx="65.39" cy="65.81" r="53.23"/><path id="red" class="cls-2" d="M15.58,106.64,35.85,93.08c.5.07-4.91-15,.21-27.42L15.58,51.73S9.23,62.81,9.42,79.19,15.58,106.64,15.58,106.64Z" transform="translate(-9.42 -13.38)"/><path id="red-2" data-name="red" class="cls-2" d="M134,106.64,113.75,93.08c-.51.07,4.91-15-.21-27.42L134,51.73s6.35,11.08,6.16,27.46S134,106.64,134,106.64Z" transform="translate(-9.42 -13.38)"/><path id="red-3" data-name="red" class="cls-2" d="M48.64,19.57,62.2,40c-.07.51,12.9-5.1,27.24.7l14.11-19.91a51.43,51.43,0,0,0-27.46-7.38C59.71,13.57,48.64,19.57,48.64,19.57Z" transform="translate(-9.42 -13.38)"/><path class="cls-2" d="M47.8,138.55l13.56-20.39c-.06-.52,13.45,5,28.11-.41L103.07,138a56.89,56.89,0,0,1-27.81,6.72C58.88,144.55,47.8,138.55,47.8,138.55Z" transform="translate(-9.42 -13.38)"/><ellipse id="shadow" class="cls-3" cx="66.02" cy="65.81" rx="43.73" ry="44.59"/></g><text class="cls-4" transform="translate(52.84 60.73)">Slip</text><text class="cls-5" transform="translate(41.46 83.56)">15%</text></svg>