<svg id="Layer_1" data-name="Layer 1" xmlns="http://www.w3.org/2000/svg" viewBox="0 0 130.76 131.37"><defs><style>.cls-1,.cls-3{fill:none;}.cls-1{stroke:#ecf0f1;stroke-width:24px;}.cls-1,.cls-3,.cls-6{stroke-miterlimit:10;}.cls-2,.cls-4{fill:#ef3c30;}.cls-3{stroke:#000;stroke-width:19px;opacity:0.05;}.cls-4{font-size:15px;letter-spacing:0.01em;}.cls-4,.cls-6{font-family:MyriadPro-Regular, Myriad Pro;}.cls-5,.cls-6{letter-spacing:0.05em;}.cls-6{font-size:25px;fill:#f04a23;stroke:#ef4b24;stroke-width:2px;}</style></defs><title>tube3</title><g id="tube_icon"><circle id="white" class="cls-1" cx="65.39" cy="65.81" r="53.23"/><path id="red" class="cls-2" d="M15.44,110.22,35.71,96.66c.51.06-4.91-15,.21-27.43L15.44,55.31S9.09,66.38,9.28,82.76,15.44,110.22,15.44,110.22Z" transform="translate(-9.28 -16.95)"/><path id="red-2" data-name="red" class="cls-2" d="M133.88,110.22,113.62,96.66c-.51.06,4.9-15-.22-27.43l20.48-13.92s6.35,11.07,6.16,27.45S133.88,110.22,133.88,110.22Z" transform="translate(-9.28 -16.95)"/><path id="red-3" data-name="red" class="cls-2" d="M48.5,23.15,62.06,43.54c-.06.52,12.9-5.09,27.24.7l14.11-19.91A51.37,51.37,0,0,0,76,17C59.58,17.15,48.5,23.15,48.5,23.15Z" transform="translate(-9.28 -16.95)"/><path class="cls-2" d="M47.67,142.13l13.56-20.4c-.07-.51,13.44,5,28.1-.4l13.6,20.27a57,57,0,0,1-27.81,6.72C58.74,148.13,47.67,142.13,47.67,142.13Z" transform="translate(-9.28 -16.95)"/><ellipse id="shadow" class="cls-3" cx="66.02" cy="65.81" rx="43.73" ry="44.59"/></g><text class="cls-4" transform="translate(52.01 60.73)">F<tspan class="cls-5" x="7.38" y="0">all</tspan></text><text class="cls-6" transform="translate(41.46 83.56)">20%</text></svg>