<svg id="Layer_1" data-name="Layer 1" xmlns="http://www.w3.org/2000/svg" viewBox="0 0 130.76 131.37"><defs><style>.cls-1,.cls-3{fill:none;}.cls-1{stroke:#ecf0f1;stroke-width:24px;}.cls-1,.cls-3,.cls-7{stroke-miterlimit:10;}.cls-2,.cls-4{fill:#ef3c30;}.cls-3{stroke:#000;stroke-width:19px;opacity:0.05;}.cls-4{font-size:15px;}.cls-4,.cls-7{font-family:MyriadPro-Regular, Myriad Pro;letter-spacing:0.05em;}.cls-5{letter-spacing:0.04em;}.cls-6{letter-spacing:0.04em;}.cls-7{font-size:25px;fill:#f04a23;stroke:#ef4b24;stroke-width:2px;}</style></defs><title>tube1</title><g id="tube_icon"><circle id="white" class="cls-1" cx="65.39" cy="65.81" r="53.23"/><path id="red" class="cls-2" d="M14.1,116.25l20.27-13.56c.51.06-4.91-15,.22-27.43L14.1,61.34S7.76,72.41,8,88.79,14.1,116.25,14.1,116.25Z" transform="translate(-7.95 -22.98)"/><path id="red-2" data-name="red" class="cls-2" d="M132.55,116.25l-20.27-13.56c-.51.06,4.91-15-.21-27.43l20.48-13.92s6.35,11.07,6.15,27.45S132.55,116.25,132.55,116.25Z" transform="translate(-7.95 -22.98)"/><path id="red-3" data-name="red" class="cls-2" d="M47.17,29.18,60.73,49.57c-.07.52,12.89-5.09,27.24.7l14.11-19.91A51.37,51.37,0,0,0,74.62,23C58.24,23.18,47.17,29.18,47.17,29.18Z" transform="translate(-7.95 -22.98)"/><path class="cls-2" d="M46.33,148.16l13.56-20.4c-.06-.51,13.44,5,28.11-.4l13.6,20.27a57,57,0,0,1-27.81,6.72C57.41,154.16,46.33,148.16,46.33,148.16Z" transform="translate(-7.95 -22.98)"/><ellipse id="shadow" class="cls-3" cx="66.02" cy="65.81" rx="43.73" ry="44.59"/></g><text class="cls-4" transform="translate(42.59 60.73)">D<tspan class="cls-5" x="10.74" y="0">r</tspan><tspan class="cls-6" x="16.24" y="0">o</tspan><tspan x="25.12" y="0">wn</tspan></text><text class="cls-7" transform="translate(41.46 83.56)">45%</text></svg>