<svg id="Layer_1" data-name="Layer 1" xmlns="http://www.w3.org/2000/svg" viewBox="0 0 43.07 43.07"><defs><style>.cls-1,.cls-3{fill:none;stroke-miterlimit:10;}.cls-1{stroke:#ecf0f1;stroke-width:10px;}.cls-2{fill:#ef3c30;}.cls-3{stroke:#000;stroke-width:5px;opacity:0.05;}</style></defs><title>tube</title><g id="tube_icon"><circle id="white" class="cls-1" cx="21.54" cy="21.54" r="16.54"/><path id="red" class="cls-2" d="M167.21,110.75l6.3-4.21c.16,0-1.53-4.66.06-8.52l-6.36-4.33a18.14,18.14,0,0,0-1.91,8.53A20,20,0,0,0,167.21,110.75Z" transform="translate(-164.07 -80.68)"/><path id="red-2" data-name="red" class="cls-2" d="M204,110.75l-6.3-4.21c-.16,0,1.53-4.66-.06-8.52L204,93.69a18.14,18.14,0,0,1,1.91,8.53A20,20,0,0,1,204,110.75Z" transform="translate(-164.07 -80.68)"/><path id="red-3" data-name="red" class="cls-2" d="M177.48,83.7,181.7,90a13.5,13.5,0,0,1,8.46.21l4.38-6.18A16,16,0,0,0,186,81.78,20,20,0,0,0,177.48,83.7Z" transform="translate(-164.07 -80.68)"/><path class="cls-2" d="M177.22,120.67l4.22-6.34c0-.16,4.17,1.54,8.73-.13l4.22,6.3a17.68,17.68,0,0,1-8.64,2.09A20,20,0,0,1,177.22,120.67Z" transform="translate(-164.07 -80.68)"/><ellipse id="shadow" class="cls-3" cx="21.73" cy="21.54" rx="13.59" ry="13.85"/></g></svg>