<svg id="infographic" xmlns="http://www.w3.org/2000/svg" viewBox="0 0 279.5 172.05"><defs><style>.cls-1{fill:#005063;}.cls-2{font-size:20px;fill:#fff;font-family:MyriadPro-Regular, Myriad Pro;}.cls-3{letter-spacing:-0.01em;}.cls-4{letter-spacing:-0.02em;}.cls-5{letter-spacing:0.03em;}.cls-6{letter-spacing:-0.01em;}</style></defs><title>wave</title><g id="info"><path id="wave" class="cls-1" d="M0,113.67v85.74H279.5s-53.75-21.74-60.5-50.49c0,0-.5-33.25,33-10.25,0,0,4,9.5-.5,14.25,0,0,9.75-.75,12-18.25s-18-28-18-28-16.25-7-33.5,0-20.25,11.5-20.25,11.5-8,5-17.25,19.5-31.75,8.75-31.75,8.75S123,134.67,113.5,121.92a70.06,70.06,0,0,1-12-25.5s-2.25-25.25,26-28.75c0,0,23.75-.75,26.75,25,0,0,.25,7.5-4,12.5,0,0,23.75-5.5,16.5-41s-50.5-36.75-50.5-36.75-25-2-51.75,18.75-30,32.25-30,32.25S14.5,104.17,0,113.67Z" transform="translate(0 -27.36)"/><text class="cls-2" transform="translate(18.85 118.96)"><tspan class="cls-3">A</tspan><tspan class="cls-4" x="11.94" y="0">C</tspan><tspan x="23.12" y="0" xml:space="preserve">CIDENT        </tspan><tspan class="cls-5" x="22.05" y="24">T</tspan><tspan class="cls-6" x="32.55" y="24">Y</tspan><tspan x="43.23" y="24">PE</tspan></text></g></svg>